<svg width="31" height="31" viewBox="0 0 31 31" fill="none" xmlns="http://www.w3.org/2000/svg">
<g clip-path="url(#clip0_2334_782)">
<path d="M18.4886 5.79761C18.5729 5.57853 18.8952 5.57853 18.9795 5.79761L19.6046 7.42244C21.2393 11.6708 24.7221 15.0203 29.1396 16.5925L30.8291 17.1936C31.0569 17.2747 31.0569 17.5846 30.8291 17.6657L29.1396 18.2669C24.7221 19.839 21.2393 23.1885 19.6046 27.4369L18.9795 29.0617C18.8952 29.2808 18.5729 29.2808 18.4886 29.0617L17.8635 27.4369C16.2288 23.1885 12.7459 19.839 8.32849 18.2669L6.63899 17.6657C6.41119 17.5846 6.41119 17.2747 6.63899 17.1936L8.32849 16.5925C12.7459 15.0203 16.2288 11.6708 17.8635 7.42244L18.4886 5.79761Z" fill="url(#paint0_linear_2334_782)"/>
<path d="M9.59337 22.4187C9.6242 22.3385 9.74235 22.3385 9.77318 22.4187L10.0021 23.0139C10.6009 24.5699 11.8766 25.7968 13.4945 26.3726L14.1134 26.5928C14.1969 26.6226 14.1969 26.7361 14.1134 26.7657L13.4945 26.9859C11.8766 27.5618 10.6009 28.7886 10.0021 30.3446L9.77318 30.9398C9.74235 31.0201 9.6242 31.0201 9.59337 30.9398L9.36441 30.3446C8.76564 28.7886 7.48994 27.5618 5.87203 26.9859L5.25327 26.7657C5.16981 26.7361 5.16981 26.6226 5.25327 26.5928L5.87203 26.3726C7.48994 25.7968 8.76564 24.5699 9.36441 23.0139L9.59337 22.4187Z" fill="url(#paint1_linear_2334_782)"/>
<path d="M6.3479 0.0870493C6.39241 -0.0286909 6.56254 -0.0286909 6.60704 0.0870493L6.93726 0.94499C7.80045 3.18846 9.63971 4.95732 11.9725 5.78747L12.8646 6.10492C12.9849 6.14771 12.9849 6.31146 12.8646 6.35426L11.9724 6.67171C9.63971 7.50186 7.80045 9.27071 6.93726 11.5142L6.60704 12.3721C6.56254 12.4879 6.39241 12.4879 6.3479 12.3721L6.01782 11.5142C5.15462 9.27071 3.31537 7.50186 0.982594 6.67171L0.0905044 6.35426C-0.0298426 6.31146 -0.0298426 6.14771 0.0905044 6.10492L0.982594 5.78747C3.31537 4.95732 5.15462 3.18846 6.01782 0.94499L6.3479 0.0870493Z" fill="url(#paint2_linear_2334_782)"/>
</g>
<defs>
<linearGradient id="paint0_linear_2334_782" x1="4" y1="3" x2="21.5978" y2="18.3129" gradientUnits="userSpaceOnUse">
<stop stop-color="#531E96"/>
<stop offset="1" stop-color="#6A5FFB"/>
</linearGradient>
<linearGradient id="paint1_linear_2334_782" x1="-1.5" y1="15.4999" x2="11.4681" y2="27.4938" gradientUnits="userSpaceOnUse">
<stop stop-color="#531E96"/>
<stop offset="1" stop-color="#6A5FFB"/>
</linearGradient>
<linearGradient id="paint2_linear_2334_782" x1="-9" y1="-11" x2="25.8524" y2="23.6393" gradientUnits="userSpaceOnUse">
<stop stop-color="#531E96"/>
<stop offset="1" stop-color="#6A5FFB"/>
</linearGradient>
<clipPath id="clip0_2334_782">
<rect width="31" height="31" fill="white"/>
</clipPath>
</defs>
</svg>
