<svg width="24" height="24" viewBox="0 0 24 24" fill="none" xmlns="http://www.w3.org/2000/svg">
<path d="M19.6407 11.02C19.6818 11.34 19.7127 11.66 19.7127 12C19.7127 12.34 19.6818 12.66 19.6407 12.98L21.8099 14.63C22.0052 14.78 22.0566 15.05 21.9333 15.27L19.8772 18.73C19.7846 18.89 19.6099 18.98 19.4248 18.98C19.3631 18.98 19.3014 18.97 19.25 18.95L16.6902 17.95C16.1556 18.35 15.5799 18.68 14.9528 18.93L14.5621 21.58C14.5313 21.82 14.3154 22 14.0584 22H9.94616C9.68915 22 9.47326 21.82 9.44242 21.58L9.05176 18.93C8.42464 18.68 7.84894 18.34 7.31435 17.95L4.7545 18.95C4.69281 18.97 4.63113 18.98 4.56945 18.98C4.39468 18.98 4.21991 18.89 4.12738 18.73L2.07128 15.27C1.93763 15.05 1.99931 14.78 2.19464 14.63L4.36384 12.98C4.32271 12.66 4.29187 12.33 4.29187 12C4.29187 11.67 4.32271 11.34 4.36384 11.02L2.19464 9.37C1.99931 9.22 1.94791 8.95 2.07128 8.73L4.12738 5.27C4.21991 5.11 4.39468 5.02 4.57973 5.02C4.64141 5.02 4.70309 5.03 4.7545 5.05L7.31435 6.05C7.84894 5.65 8.42464 5.32 9.05176 5.07L9.44242 2.42C9.47326 2.18 9.68915 2 9.94616 2H14.0584C14.3154 2 14.5313 2.18 14.5621 2.42L14.9528 5.07C15.5799 5.32 16.1556 5.66 16.6902 6.05L19.25 5.05C19.3117 5.03 19.3734 5.02 19.4351 5.02C19.6099 5.02 19.7846 5.11 19.8772 5.27L21.9333 8.73C22.0566 8.95 22.0052 9.22 21.8099 9.37L19.6407 11.02ZM17.6052 12.73C17.6463 12.42 17.6566 12.21 17.6566 12C17.6566 11.79 17.636 11.57 17.6052 11.27L17.4612 10.14L18.3762 9.44L19.4865 8.6L18.7669 7.39L17.4612 7.9L16.3921 8.32L15.4668 7.64C15.0247 7.32 14.6032 7.08 14.1817 6.91L13.092 6.48L12.9275 5.35L12.7219 4H11.2826L11.0873 5.35L10.9228 6.48L9.83308 6.91C9.39102 7.09 8.97979 7.32 8.56857 7.62L7.63304 8.32L6.54331 7.89L5.23768 7.38L4.51804 8.59L5.62834 9.43L6.54331 10.13L6.39938 11.26C6.36854 11.57 6.34798 11.8 6.34798 12C6.34798 12.2 6.36854 12.43 6.39938 12.73L6.54331 13.86L5.62834 14.56L4.51804 15.4L5.23768 16.61L6.54331 16.1L7.61248 15.68L8.53773 16.36C8.97979 16.68 9.4013 16.92 9.8228 17.09L10.9125 17.52L11.077 18.65L11.2826 20H12.7116L12.907 18.65L13.0714 17.52L14.1612 17.09C14.6032 16.91 15.0145 16.68 15.4257 16.38L16.3612 15.68L17.451 16.11L18.7566 16.62L19.4762 15.41L18.3762 14.56L17.4612 13.86L17.6052 12.73ZM12.0023 16C9.73027 16 7.89006 14.21 7.89006 12C7.89006 9.79 9.73027 8 12.0023 8C14.2743 8 16.1145 9.79 16.1145 12C16.1145 14.21 14.2743 16 12.0023 16ZM12.0023 10C10.8714 10 9.94616 10.9 9.94616 12C9.94616 13.1 10.8714 14 12.0023 14C13.1331 14 14.0584 13.1 14.0584 12C14.0584 10.9 13.1331 10 12.0023 10Z" fill="#531E96"/>
</svg>
